<?xml version="1.0" encoding="utf-8" ?>
<svg xmlns="http://www.w3.org/2000/svg" xmlns:xlink="http://www.w3.org/1999/xlink" width="1700" height="1044">
	<path fill="#FEFEFE" d="M0 0L1698.55 0C1700.55 3.15357 1699.99 7.65666 1700 11.2872L1700 757.245L1700.01 962.167L1700 1017.45C1699.99 1024.81 1701 1033.93 1699.77 1041.11C1699.59 1042.15 1699.11 1043.11 1698.55 1044L0 1044L0 0Z"/>
	<path fill="#010000" d="M489.799 239.401C491.855 238.684 492.098 238.579 494.175 239.165L494.407 240.556C491.124 244.638 480.121 244.727 475.004 245.34C473.649 245.699 472.504 245.619 471.129 245.525C470.268 243.835 470.334 243.744 470.664 241.86C473.993 238.319 485.019 239.781 489.799 239.401Z"/>
	<path fill="#010000" d="M513.568 235.032C515.202 234.751 517.282 234.863 518.784 235.573C520.281 236.281 520.652 236.431 521.168 237.965C518.365 241.198 509.053 241.619 504.877 242.265C503.003 242.354 501.2 242.487 499.351 242.099C497.914 241.797 497.973 241.4 497.17 240.154L497.697 238.808C501.876 236.279 508.691 236.008 513.568 235.032Z"/>
	<path fill="#010000" d="M278.549 387.511L281.726 388.533C286.687 392.85 287.145 403.288 288.126 409.5C286.418 409.854 285.372 410.046 283.693 409.503C278.977 404.423 279.084 394.168 278.549 387.511Z"/>
	<path fill="#010000" d="M446.278 242.509C450.53 242.311 461.045 241.189 464.363 243.486C464.148 243.941 464.063 244.192 463.78 244.576C462.35 246.518 459.806 247.038 457.575 247.347Q451.091 247.988 444.596 248.496C442.381 248.652 440.004 248.847 438.235 247.317L438.708 245.663C440.837 243.583 443.479 243.202 446.278 242.509Z"/>
	<path fill="#010000" d="M246.876 246.867C247.3 247.071 247.725 247.273 248.136 247.501C250.799 248.972 251.412 250.633 252.255 253.427C253.826 258.635 255.858 266.316 253.284 271.144L251.659 270.484C250.753 269.419 250.261 268.502 249.742 267.204C247.379 261.286 244.287 252.986 246.876 246.867Z"/>
	<path fill="#010000" d="M941.238 829.624C942.338 830.085 943.158 830.893 944.048 831.664L943.947 833.59C939.72 839.597 931.726 844.202 925.825 848.517C924.218 848.114 923.62 848.29 922.724 846.842C924.4 841.637 936.801 833.658 941.238 829.624Z"/>
	<path fill="#010000" d="M264.91 333.496C266.423 333.409 267.781 333.53 269.28 333.731C271.081 335.243 271.835 337.13 272.651 339.288C274.328 343.727 275.518 350.573 273.542 354.989L271.058 354.414C266.875 350.722 265.594 339.021 264.91 333.496Z"/>
	<path fill="#010000" d="M575.449 227.655C577.931 227.287 581.845 226.546 584.282 227.299C585.808 227.772 585.988 228.043 586.615 229.442C586.267 230.103 586.209 230.299 585.789 230.836C583.601 233.63 578.67 233.572 575.442 233.911C573.23 234.201 570.301 234.837 568.107 234.491C566.273 234.201 565.547 233.564 564.678 232.052L565.643 230.343C568.411 228.083 572.031 228.061 575.449 227.655Z"/>
	<path fill="#010000" d="M240.182 222.699L244.016 223.396C244.757 224.01 245.315 224.654 245.833 225.473C248.543 229.757 249.71 238.863 248.716 243.799C247.149 243.816 245.239 244.296 244.087 243.03C240.842 239.465 239.707 227.502 240.182 222.699Z"/>
	<path fill="#010000" d="M285.022 414.68C286.687 414.873 287.658 415.136 289.145 415.907C293.714 420.768 293.609 430.921 294.332 437.222C292.044 437.157 290.862 437.485 289.008 435.945C286.428 429.846 284.408 421.322 285.022 414.68Z"/>
	<path fill="#010000" d="M252.727 275.259L255.902 275.991C257.098 277.204 257.827 278.548 258.418 280.129C260.176 284.837 262.82 294.014 260.708 298.696L257.28 297.842C256.489 297.092 255.983 296.545 255.574 295.511C253.61 290.545 250.612 280.149 252.727 275.259Z"/>
	<path fill="#010000" d="M272.646 360.662C274.046 360.763 275.263 361.041 276.606 361.41C277.314 362.322 277.898 363.28 278.386 364.329C281.039 370.021 282.539 377.662 280.408 383.722C277.496 382.28 276.141 380.618 274.918 377.63C273.033 373.025 270.697 365.369 272.646 360.662Z"/>
	<path fill="#010000" d="M258.48 305.174C260.668 305.177 262.74 304.724 264.321 306.621C267.604 310.559 268.641 321.553 268.525 326.584C267.134 326.847 265.873 326.88 264.468 326.862C259.808 322.589 259.025 311.268 258.48 305.174Z"/>
	<path fill="#010000" d="M794.398 213.758C796.288 213.829 797.835 213.735 799.451 214.807C803.458 220.949 799.619 232.63 801.067 239.792C801.277 240.827 801.445 241.868 801.629 242.908C801.168 243.393 800.703 243.936 800.098 244.254C798.127 245.286 797.025 245.285 794.981 244.858C791.123 239.88 794.014 220.57 794.398 213.758Z"/>
	<path fill="#010000" d="M351.515 446.434C354.103 446.287 355.699 445.869 358.07 447.135C362.752 454.36 358.926 467.674 359.618 475.987L359.686 476.764C357.167 476.948 354.034 477.614 351.715 476.484C350.231 467.079 351.077 455.963 351.515 446.434Z"/>
	<path fill="#010000" d="M748.674 214.087C751.381 214.034 753.862 214.043 756.542 214.563C759.079 219.872 757.892 238.567 757.204 244.869C754.445 244.95 751.838 245.117 749.149 244.352C749.084 234.263 749.844 224.134 748.674 214.087Z"/>
	<path fill="#010000" d="M700.281 213.597C702.421 213.825 703.679 213.998 705.433 215.287C706.948 219.273 707.448 242.3 706.52 246.435Q705.384 246.448 704.248 246.426C701.499 246.364 700.118 245.976 698.256 244.029C697.178 235.819 696.803 221.19 700.281 213.597Z"/>
	<path fill="#010000" d="M149.728 357.038Q151.594 356.983 153.46 356.963C157.14 356.935 159.984 357.133 162.717 359.933C163.562 360.799 163.925 362.261 163.85 363.449C163.505 368.849 159.09 372.166 155.48 375.65C157.015 375.761 158.62 375.846 160.125 376.181C161.89 376.573 163.965 377.314 164.991 378.846L164.692 380.145C159.67 383.704 153.597 382.969 147.801 382.716C147.066 382.09 147.135 382.296 146.787 381.604C143.154 374.389 155.101 369.584 156.916 363.928L155.86 362.666C151.706 362.487 150.002 366.623 146.066 367.295C144.917 365.816 144.82 365.552 145.001 363.663C145.303 360.515 147.42 358.824 149.728 357.038Z"/>
	<path fill="#010000" d="M1098.77 809.537C1100.05 809.99 1100.63 811.02 1101.74 811.565C1106.93 814.112 1116.96 811.22 1122.91 812.559C1124.82 812.988 1125.29 813.996 1126.32 815.477C1126.87 820.986 1120.28 818.688 1118.46 821.077C1116.15 824.108 1118.96 831.76 1116.45 836.149C1116.88 836.895 1117.44 837.771 1117.64 838.609C1118.09 840.534 1117.29 841.327 1116.19 842.675C1113.96 843.337 1113.55 843.404 1111.32 842.822C1107.99 838.647 1110.59 826.761 1109.18 820.88C1109.12 820.647 1109.06 820.416 1109 820.183C1106.2 819.4 1101.95 819.79 1098.96 819.682C1100.07 816.681 1098.48 812.886 1098.77 809.537Z"/>
	<path fill="#010000" d="M270.313 489.87C272.812 489.76 275.165 489.369 277.423 490.63C281.12 495.904 278.99 506.607 278.994 513.005Q281.466 512.975 283.938 512.973C287.92 512.971 292.006 512.439 295.063 515.492C295.804 517.755 295.745 518.336 295.304 520.696C286.975 521.391 278.532 520.948 270.201 520.548C269.433 510.496 270.842 500.063 270.313 489.87Z"/>
	<path fill="#010000" d="M317.687 446.196C322.707 446.169 339.841 444.954 343.375 447.145C345.045 448.18 344.978 448.794 345.415 450.594C343.468 455.901 340.732 452.657 336.616 454.731C334.897 459.272 336.045 466.682 336.17 471.584C336.418 472.959 336.513 474.224 336.555 475.621C336.021 476.244 335.428 476.961 334.737 477.411C333.047 478.509 332.103 478.688 330.235 478.186C326.156 473.54 327.933 459.88 328.036 453.891C325.054 453.923 322.134 454.152 319.278 453.17C317.64 450.67 317.858 449.143 317.687 446.196Z"/>
	<path fill="#010000" d="M1016.86 813.417C1022.05 813.291 1034.69 811.697 1038.94 814.855C1040.29 815.861 1040.13 816.664 1040.36 818.182C1039.39 820.382 1039.09 820.356 1036.9 821.458C1033.54 820.244 1029.57 819.01 1026.13 820.604C1025.42 820.931 1025.05 821.784 1024.61 822.411L1025.28 824.145C1027.35 825.04 1028.83 825.316 1031.08 824.424Q1032.91 823.674 1034.53 822.529C1035.02 823.66 1035.63 824.934 1035.9 826.141C1036.37 828.271 1035.81 828.974 1034.6 830.543C1031.47 831.97 1027.02 831.488 1023.59 831.477C1023.51 835.053 1024.79 840.267 1024.02 843.475C1023.64 845.061 1022.61 845.372 1021.35 846.171C1019.41 845.982 1019 846.176 1017.56 844.772C1015.79 834.865 1016.86 823.507 1016.86 813.417Z"/>
	<path fill="#010000" d="M1046.65 813.634C1052.82 813.379 1062.59 811.906 1068.23 814.733C1068.88 815.062 1068.88 815.708 1069.11 816.37C1066.17 820.68 1057.42 820.828 1052.68 822.853C1056.28 823.168 1061.73 823.509 1064.84 825.395C1066.21 826.227 1066.2 826.789 1066.55 828.23C1065.81 829.82 1064.96 830.424 1063.53 831.406L1051.87 831.406C1054.02 835.009 1053.5 839.656 1053.03 843.657C1051.4 845.127 1051.13 845.393 1048.99 845.749C1046.97 844.154 1046.3 842.963 1045.89 840.326C1045.16 835.626 1044.12 817.141 1046.65 813.634Z"/>
	<path fill="#010000" d="M965.057 812.57C969.553 812.187 974.158 812.352 978.672 812.336C977.995 815.221 976.987 817.995 976.026 820.795C973.054 819.945 969.336 818.411 966.286 819.079C964.085 820.37 962.716 821.74 961.723 824.136C960.583 826.884 960.34 830.42 961.579 833.18C962.419 835.052 964.178 836.723 966.147 837.353C969.999 838.585 973.691 836.234 977.038 834.588C978.388 836.373 979.234 837.859 979.909 839.996C978.925 841.961 977.979 842.423 975.922 843.21C971.211 845.012 965.074 845.854 960.347 843.661C957.493 842.337 955.51 839.986 954.491 837.031C952.729 831.918 952.847 823.029 955.451 818.246C957.484 814.511 961.271 813.59 965.057 812.57Z"/>
	<path fill="#010000" d="M765.894 214.303C773.887 214.009 780.406 213.816 788.062 216.511L788.037 219.872C782.897 221.307 777.441 220.862 772.51 222.318L772.408 223.911C774.885 226.531 779.989 225.496 783.657 225.84C785.785 227.301 786.119 229.421 786.835 231.767C783.494 234.343 776.105 233.45 771.986 233.469C772.067 237.329 772.751 241.426 770.598 244.723C768.48 245.067 766.952 245.157 764.862 244.623C764.831 244.431 764.798 244.239 764.77 244.046C764.001 238.746 762.96 218.173 765.894 214.303Z"/>
	<path fill="#010000" d="M196.501 489.204C203.752 492.558 204.637 502.34 210.274 507.363C215.458 506.844 216.298 493.917 222.355 490.66C223.987 489.783 224.201 489.914 225.932 490.51C226.117 490.874 226.24 491.099 226.399 491.494C227.853 495.106 224.79 500.058 223.271 503.403C220.087 509.167 217.532 515.216 214.497 521.059L212.643 520.843C205.083 516.185 196.356 501.657 192.081 493.736C192.821 491.369 194.556 490.654 196.501 489.204Z"/>
	<path fill="#010000" d="M312.672 506.969C316.152 501.296 318.94 492.44 324.709 488.86C326.628 488.591 327.461 488.717 329.197 489.566L329.874 491.592C329.12 495.303 326.875 498.529 324.952 501.738C322.703 506.039 317.769 518.253 313.12 519.802C307.421 517.137 296.409 497.894 293.16 491.723C294.123 489.81 295.83 489.43 297.705 488.522C299.159 488.763 300.292 488.749 301.409 489.877C305.637 494.145 305.643 500.692 312.672 506.969Z"/>
	<path fill="#010000" d="M295.096 446.593C301.933 445.944 307.581 446.637 314.213 448.222L309.309 455.509C305.906 454.578 302.41 453.373 298.862 453.325C297.254 454.408 296.64 455.407 296 457.25C294.921 460.36 294.707 464.513 296.286 467.485Q296.446 467.786 296.636 468.069Q296.826 468.351 297.045 468.613Q297.264 468.874 297.509 469.111Q297.754 469.348 298.022 469.559Q298.29 469.769 298.579 469.95Q298.867 470.131 299.173 470.282Q299.479 470.432 299.799 470.549Q300.119 470.667 300.45 470.75C304.756 471.818 308.804 468.393 312.229 466.197C314.554 467.758 315.58 469.024 316.168 471.663C315.574 473.198 314.857 474.181 313.526 475.179C309.328 478.329 303.355 479.299 298.254 478.428C294.71 477.823 291.466 476.012 289.448 472.967C286.524 468.553 286.322 462.008 287.361 456.973C288.376 452.057 291.012 449.255 295.096 446.593Z"/>
	<path fill="#010000" d="M624.591 216.053C626.221 216.02 628.444 215.765 629.977 216.353C636.195 218.739 630.758 231.773 632.838 236.629C633.441 238.035 634.383 239.143 635.907 239.608C638.031 240.256 639.496 240.146 641.435 239.254C645.335 233.781 642.47 225.547 643.462 219.284C643.902 216.503 644.379 216.519 646.572 214.863C646.97 215.011 647.177 215.061 647.545 215.355C650.637 217.829 650.197 220.712 650.241 224.271Q650.336 224.943 650.405 225.619C651.028 231.82 651.08 238.807 646.669 243.747C644.284 246.418 640.877 248.385 637.231 248.484C634.039 248.571 630.496 247.399 628.187 245.147C622.846 239.938 624.906 223.467 624.591 216.053Z"/>
	<path fill="#010000" d="M983.257 812.208C985.022 812.16 986.385 812.314 988.097 812.757C992.052 817.167 990.039 825.504 990.127 830.972C990.167 833.415 990.751 835.131 992.521 836.855C994.97 838.107 996.818 837.921 999.447 837.705C1004.66 833.646 999.152 820.4 1002.86 814.108C1004.71 813.271 1005.85 813.159 1007.86 813.411C1009.42 815.008 1009.16 815.886 1009.38 818.063L1009.33 838.562C1006.9 840.742 1004.25 842.515 1001.54 844.336C998.621 844.395 995.507 844.572 992.606 844.24C989.411 843.874 986.51 842.316 984.621 839.677C980.905 834.487 982.286 818.546 983.257 812.208Z"/>
	<path fill="#010000" d="M1131.07 812.868C1133.96 812.532 1135.78 811.92 1138.47 813.109C1142.46 818.742 1138.03 825.822 1139.53 831.985C1139.96 833.76 1140.89 835.138 1142.58 835.919C1144.4 836.76 1146.29 836.568 1148.15 836.065C1152.32 831.362 1149.53 822.916 1149.65 817.106C1149.7 814.81 1150.16 813.928 1151.75 812.356C1153.91 812.208 1155.34 812.21 1157.38 812.946C1157.97 814.947 1157.15 815.982 1156.39 817.829C1156.63 818.21 1156.7 818.304 1156.93 818.753C1158.62 822.172 1158.96 830.84 1157.62 834.479C1156.13 838.51 1153.19 841.526 1149.23 843.116C1145.88 844.46 1141.9 844.687 1138.61 843.06C1126.86 837.261 1134.71 822.822 1131.26 813.354C1131.2 813.19 1131.13 813.03 1131.07 812.868Z"/>
	<path fill="#010000" d="M1199.31 812.872C1203.27 812.075 1207.99 811.995 1212.04 812.161C1215.57 812.306 1221.09 813.077 1223.58 815.763C1219.5 819.921 1209.89 816.806 1206.78 820.222C1210.7 824.472 1216.23 820.936 1220.4 823.981C1221.02 826.009 1221.28 826.292 1220.58 828.378C1217.78 829.834 1214.13 828.811 1211.05 828.887C1208.17 828.959 1207.64 829.9 1205.83 831.957C1206.24 833.161 1206.71 834.346 1207.16 835.536C1211.9 838.006 1217.99 835.731 1223.03 837.749C1224 839.47 1223.98 839.314 1223.45 841.215C1217.71 844.72 1205.28 843.388 1198.29 844.056C1201.75 835.7 1198.97 822.048 1199.31 812.872Z"/>
	<path fill="#010000" d="M611.145 214.26C613.26 214.921 614.396 215.138 615.573 217.213C618.425 222.237 618.215 239.006 617.053 244.746C615.231 246.635 611.736 247.047 609.247 247.705C608.789 243.843 609.81 239.459 608.325 235.868C606.406 233.681 603.611 233.574 600.88 233.073C600.426 236.693 600.302 240.407 600.044 244.049C599.954 244.566 599.552 245.198 599.321 245.676C597.034 246.257 596.535 246.63 594.277 245.748C593.285 244.129 592.942 242.754 592.697 240.898C592.101 236.382 590.922 220.191 593.45 216.868C594.322 216.751 595.325 216.583 596.199 216.708C602.497 217.604 598.509 223.328 601.338 226.691C602.521 226.827 603.975 227.085 605.172 226.952C612.637 226.124 606.277 220.829 611.145 214.26Z"/>
	<path fill="#010000" d="M254.368 446.014C255.775 446.007 257.708 445.832 259.061 446.2C267.396 448.469 260.143 463.927 263.973 469.762C265.938 471.312 267.272 471.668 269.748 471.893C279.018 468.228 269.104 452.714 274.413 446.237C276.811 446.125 279.198 445.675 281.308 447.009L281.634 449.592C281.347 456.765 283.546 467.871 279.138 473.941C277.273 476.51 274.182 477.821 271.101 478.148C266.539 478.632 260.376 478.114 256.806 474.894C252.78 471.263 254.361 452.066 254.368 446.014Z"/>
	<path fill="#010000" d="M239.969 489.162C247.243 492.14 260.038 513.124 264.984 520.365C262.457 520.295 259.693 520.33 257.222 519.776C254.005 519.055 252.624 517.175 251.101 514.486C250.452 513.339 250.205 513.525 249.011 513.101L237.007 513.12C235.436 515.176 233.641 517.864 231.497 519.302C229.724 520.491 228.148 520.689 226.107 520.326L225.268 518.669C225.848 509.529 235.159 497.052 239.969 489.162Z"/>
	<path fill="#010000" d="M808.515 214.21C815.328 214.05 825.84 212.465 832.122 215.439C833.357 217.063 833.929 217.271 833.744 219.363C830.464 222.665 820.72 221.862 816.155 222.172L815.174 224.163L815.307 222.461L815.886 222.274L815.588 224.489C819.359 225.009 826.32 225.173 829.145 227.725C829.111 229.478 828.985 229.766 827.839 231.112C825.611 233.727 821.822 233.464 818.646 233.692C816.849 233.792 816.87 233.738 815.577 234.979L816.343 236.513C819.863 238.193 824.272 237.163 828.081 237.303C830.94 237.408 831.487 238.273 833.252 240.321C833.204 241.091 833.407 242.025 832.785 242.565C828.191 246.559 814.186 244.937 808.426 244.807C807.843 234.752 808.051 224.27 808.515 214.21Z"/>
	<path fill="#010000" d="M338.98 488.671C345.498 490.298 355.843 487.033 361.115 491.587C361.229 492.868 361.507 493.158 360.751 494.287C358.363 497.856 350.336 496.656 346.24 497.533C348.503 498.234 353.67 500.405 355.818 499.758C356.095 499.674 356.365 499.567 356.638 499.471L355.293 500.209L358.101 503.361L357.673 505.48C353.856 505.936 350.242 506.482 346.539 507.528C344.959 509.527 345.473 510.565 345.66 512.954C349.054 512.946 352.562 512.818 355.946 513.046C358.963 513.248 362.499 514.55 364.514 516.853C364.074 517.729 363.984 518.469 363.062 518.888C358.377 521.019 344.682 522.513 339.905 520.221C338.372 519.485 337.776 518.432 337.374 516.857C336.04 511.634 336.137 493.169 338.98 488.671Z"/>
	<path fill="#010000" d="M497.953 699.195C498.679 699.664 499.301 700.162 499.845 700.847C501.743 703.24 502.535 792.689 501.896 803.957C500.633 803.716 499.417 803.345 498.182 802.994C497.79 802.429 497.695 802.365 497.461 801.605C495.367 794.802 494.35 714.681 495.665 704.188C495.914 702.197 496.807 700.791 497.953 699.195Z"/>
	<path fill="#010000" d="M188.761 477.315C188.505 470.407 187.475 455.748 189.571 449.545C191.639 448.219 193.599 447.718 195.994 447.312C200.828 446.493 207.678 446.236 211.851 449.189C213.223 451.659 212.934 452.486 212.637 455.2C207.37 454.308 203.628 453.77 198.652 456.045L197.657 457.425C199.022 458.726 200.61 458.98 202.493 458.864C204.707 458.729 207 458.178 209.175 457.743C210.439 459.781 211.594 461.206 211.299 463.715C208.266 466.242 204.613 464.982 200.938 465.726C198.691 466.181 197.778 466.723 196.549 468.599C196.602 468.783 196.645 468.97 196.707 469.151C198.52 474.398 208.864 470.49 213.115 472.727C214.085 474.769 214.36 474.926 213.858 477.229C213.386 477.628 212.909 478.001 212.362 478.298C207.335 481.033 193.994 479.111 188.761 477.315Z"/>
	<path fill="#010000" d="M419.648 442.634C421.49 443.566 422.685 444.624 424.142 446.076C425.129 448.75 425.032 451.429 425.008 454.247C424.964 459.43 425.397 472.614 421.433 476.117C420.083 477.31 419.691 477.08 417.917 476.896C414.245 471.825 410.364 466.954 406.846 461.768C406.904 465.28 407.439 469.666 406.773 473.111C406.206 476.045 405.192 476.552 402.92 478.248L400.177 476.867C399.568 475.902 399.166 475.178 399.09 474.014C398.703 468.094 399.308 461.909 399.25 455.95C399.222 453.08 398.371 450.252 398.689 447.412L400.321 446.248C401.761 446.16 403.008 445.837 404.295 446.703C407.047 448.556 411.848 457.314 415.975 460.915C415.874 457.757 415.717 454.574 415.747 451.415C415.787 447.289 416.805 445.389 419.648 442.634Z"/>
	<path fill="#010000" d="M162.729 447.959C165.918 449.83 173.371 447.597 179.042 451.401C179.752 452.509 180.466 453.264 180.544 454.608C180.783 458.7 178.154 463.799 175.511 466.814C179.139 471.026 182.408 475.282 185.543 479.873C181.963 479.141 177.845 478.679 174.748 476.664C173.192 474.192 171.444 470.978 169.192 469.089C167.53 467.696 167.042 467.272 164.91 467.465C162.128 470.868 163.005 476.583 160.651 480.546C157.895 480.744 157.812 480.868 155.64 479.204C154.811 469.771 154.305 458.678 155.547 449.285C157.979 448.939 160.334 448.521 162.729 447.959Z"/>
	<path fill="#FEFEFE" d="M163.002 455.108C165.911 455.021 169.028 454.582 171.739 455.78C172.963 457.984 172.634 458.412 172.194 460.945C169.529 461.297 166.663 462.031 164.088 461.071C162.678 458.959 163.007 457.544 163.002 455.108Z"/>
	<path fill="#010000" d="M838.926 214.162C844.952 214.021 852.545 213.12 858.14 215.69C860.224 216.647 861.892 218.086 862.572 220.345C864.071 225.325 861.336 229.496 858.96 233.611C860.502 235.258 862.263 236.687 863.885 238.254C865.554 239.866 866.7 240.919 866.726 243.288C864.756 244.964 862.829 244.886 860.368 245.07C857.535 242.327 855.261 238.373 852.146 236.021C850.38 234.688 849.695 234.523 847.553 234.757C845.667 236.991 846.721 240.041 846.112 242.735C845.666 244.712 844.46 244.893 842.821 245.838C841.64 245.795 840.731 246.064 839.868 245.162C836.959 242.122 838.428 219.165 838.926 214.162Z"/>
	<path fill="#FEFEFE" d="M848.576 220.029C850.714 220.854 852.579 221.614 854.464 222.946C854.807 225.029 854.604 225.355 853.836 227.233C851.3 227.322 848.458 227.832 846.262 226.383C846.184 223.663 847.301 222.363 848.576 220.029Z"/>
	<path fill="#010000" d="M1165.21 812.872C1169.88 812.023 1176.78 811.328 1181.47 811.931C1183.99 812.257 1185.99 813.439 1187.42 815.553C1188.11 816.578 1192.93 835.626 1192.8 836.356C1191.83 838.544 1190.99 839.381 1188.91 840.564C1188.81 840.678 1188.71 840.805 1188.59 840.906C1183.77 844.966 1170.22 843.105 1164.37 842.891C1166.9 838.308 1166.02 818.293 1165.21 812.872Z"/>
	<path fill="#FEFEFE" d="M1175.02 830.301Q1176.51 830.083 1178 829.948C1180.92 829.699 1182.81 830.468 1185.02 832.354C1185.64 832.878 1185.44 833.375 1185.5 834.146C1184.09 835.709 1182.66 835.777 1180.65 836.113C1179.86 836.281 1179.07 836.449 1178.27 836.544C1176.86 836.71 1175.8 836.455 1174.74 835.491C1173.43 834.296 1173.55 833.943 1173.4 832.153L1175.02 830.301Z"/>
	<path fill="#010000" d="M657.328 214.86C658.613 215.053 660.979 215.073 662.091 215.578C666.71 217.675 668.11 229.894 673.22 232.135C678.792 228.343 678.395 219.207 685.492 216.355C687.632 216.366 689.624 216.02 691.517 217.063C692.397 226.281 692.296 236.182 691.241 245.379C689.245 246.803 685.96 246.181 683.588 246.097C683.992 240.595 684.849 235.06 685.346 229.549C682.804 233.997 680.556 242.205 677.022 245.584C676.347 246.229 675.969 246.498 675.027 246.339C671.373 245.725 667.138 237.401 665.032 234.513C665.038 237.577 665.253 240.863 664.943 243.903C664.722 246.069 663.521 246.487 661.89 247.617C660.872 247.575 660.382 247.784 659.581 247.067C655.283 243.218 657.238 221.007 657.328 214.86Z"/>
	<path fill="#010000" d="M377.181 445.001C380.344 445.11 384.337 444.958 387.162 446.549C390.101 448.204 392.244 451.863 393.12 455.071C394.657 460.704 393.813 467.531 390.908 472.595C388.809 476.256 386.304 477 382.492 478.004C378.946 478.296 374.655 478.351 371.497 476.526C368.308 474.683 366.326 471.259 365.377 467.794C363.856 462.244 364.46 455.509 367.492 450.544C369.665 446.986 373.444 446.043 377.181 445.001Z"/>
	<path fill="#FEFEFE" d="M376.48 452.472L381.545 452.6C383.844 454.165 385.336 456.373 385.742 459.237C386.284 463.06 385.263 467.71 383.001 470.713C381.112 470.706 377.786 471.024 376.242 469.815C374.463 468.422 373.153 465.729 372.918 463.512C372.462 459.203 373.717 455.591 376.48 452.472Z"/>
	<path fill="#010000" d="M712.594 215.166C719.236 215.12 731.935 213.494 737.035 217.992C741.604 222.021 741.282 228.937 741.75 234.543C740.544 237.575 739.166 240.069 737.312 242.754C729.59 246.297 721.393 245.901 713.047 246.256C712.418 236.054 711.702 225.349 712.594 215.166Z"/>
	<path fill="#FEFEFE" d="M722.029 221.461C724.27 221.717 726.979 221.825 729.091 222.611C731.001 223.322 732.735 224.659 733.542 226.579C734.942 229.91 733.258 233.996 732.035 237.148C729.745 237.392 724.964 238.264 723.042 236.981C721.572 235.999 720 233.953 719.743 232.169C719.217 228.519 719.82 224.439 722.029 221.461Z"/>
	<path fill="#010000" d="M220.146 447.474C227.437 447.219 238.311 445.457 244.748 449.731C247.277 451.41 248.834 454.119 249.379 457.073C250.378 462.481 249.795 469.79 246.549 474.365C237.932 479.352 229.558 478.311 219.949 478.039C219.699 467.955 219.561 457.535 220.146 447.474Z"/>
	<path fill="#FEFEFE" d="M227.62 454.03Q228.548 453.998 229.477 453.981C233.712 453.907 236.55 454.156 239.664 457.407C241.298 459.112 242.133 461.018 242.036 463.381C241.907 466.511 241.248 468.778 238.936 470.96C237.225 471.322 235.314 471.859 233.573 471.931C231.932 471.999 230.633 471.822 229.439 470.634C226.414 467.622 227.689 458.189 227.62 454.03Z"/>
	<path fill="#010000" d="M124.103 318.111L126.622 318.623C130.85 324.987 116.357 338.156 116.275 345.435C125.658 345.848 124.684 353.172 131.503 356.762C133.618 355.554 133.678 348.114 137.74 344.711L139.365 344.88C143.15 350.064 141.001 367.495 140.766 374.126C139.857 375.497 139.806 375.33 138.171 375.678C132.376 373.841 129.252 365.491 125.04 361.27L124.319 360.557C124.37 364.174 124.805 368.294 124.321 371.869C123.923 374.804 123.223 375.437 121.018 377.174C120.14 376.884 118.197 376.525 117.519 376.02C113.559 373.074 118.893 353.516 115.159 348.272C111.46 349.889 102.901 368.79 100.103 373.345C99.1292 374.931 97.4108 376.206 95.5595 376.524C94.2945 376.742 94.7647 376.816 93.7778 376.159C93.0692 372.224 120.049 325.163 124.103 318.111Z"/>
	<path fill="#010000" d="M63.9354 316.32C67.1727 315.938 70.9846 316.505 73.5819 318.598C78.0342 322.187 77.7389 331.492 78.1968 336.752C78.2953 336.648 78.3928 336.544 78.4925 336.442C81.9834 332.863 84.8334 331.595 89.7859 331.546C93.3137 331.511 96.1754 331.825 98.8075 334.419C103.489 343.667 93.4254 342.813 91.6542 348.384C93.7009 348.969 96.0963 349.473 97.9367 350.548C99.4267 351.418 99.4873 351.759 99.9782 353.385C99.4578 354.608 99.3504 355.5 98.026 356.084C93.7494 357.968 82.6547 356.218 78.349 354.589C81.7412 346.801 88.5543 345.685 91.6813 339.7C88.9277 338.446 81.8792 338.803 78.9039 339.522C76.2781 340.157 75.0767 343.664 73.8017 345.824C69.3932 349.156 63.583 348.299 58.3891 348.031C58.2402 347.944 58.0896 347.861 57.9424 347.771C57.6971 347.623 57.4565 347.467 57.2117 347.318L56.427 346.848C52.7603 344.622 51.5185 342.115 50.5842 338.002C49.3538 332.586 50.2438 326.959 53.2562 322.254C55.9826 317.995 59.3133 317.31 63.9354 316.32Z"/>
	<path fill="#FEFEFE" d="M62.9809 322.28C64.4129 322.469 66.3503 322.916 67.2598 324.066C69.8619 327.357 69.4719 334.42 68.9856 338.325C68.728 340.394 68.8145 340.739 67.1112 342.043C64.7936 341.865 62.9864 341.848 60.9792 340.532C59.8639 338.579 58.9241 336.17 58.8852 333.885C58.8095 329.435 59.9921 325.453 62.9809 322.28Z"/>
	<path fill="#010000" d="M480.526 806.031C480.382 796.864 478.439 783.823 480.117 775.083C482.149 773.58 486.749 773.658 489.207 773.981C491.275 774.252 492.728 775.414 493.819 777.16C497.363 782.832 494.748 798.527 494.929 805.647C506.051 806.099 517.19 805.603 528.302 806.067L531.222 811.323C530.651 812.438 530.292 812.573 530.578 813.842C532.493 812.803 531.813 810.46 533.996 809.817C537.183 808.879 566.819 809.239 573.56 808.948C596.864 807.941 619.328 809.122 642.562 810.066C669.239 811.15 696.665 812.006 723.18 815.219C775.554 821.564 832.195 835.843 882.882 850.9C890.612 853.197 898.2 856.208 906.143 857.665C909.773 854.932 912.789 852.233 917.428 851.531L918.041 852.589C916.25 855.702 913.248 857.62 910.432 859.736Q939.232 868.658 967.315 879.629C969.936 875.586 973.454 867.094 978.297 865.641C986.883 868.102 1073.25 903.935 1076.4 907.029C1077.16 910.746 1073.76 917.844 1071.68 921.087C1071.36 921.576 1071.2 921.701 1070.82 922.06C1080.1 925.539 1129.1 945.597 1132.69 951.38C1122.4 957.321 1108.35 958.512 1097.09 962.988C1085.72 955.743 1071.54 951.134 1059.18 945.61C1057.72 949.567 1053.25 960.297 1049.33 962.05C1046.19 963.46 964.969 927.283 954.812 923.01C952.648 918.421 954.096 916.648 948.35 914.581C907.449 899.862 864.547 889.158 821.883 881.082C728.171 863.342 630.377 857.402 542.084 899.876C525.452 907.876 501.934 918.489 492.282 934.701C492.097 947.806 492.008 958.029 481.909 967.85C473.848 975.69 462.252 979.241 451.171 979.003C446.474 978.901 441.804 978.279 437.104 978.469C432.13 983.427 407.526 1010.18 403.948 1012.42L402.333 1012.33C401.731 1009.82 402.002 1008.02 403.287 1005.72C406.576 999.834 427.137 979.357 433.356 975.562C436.277 973.78 439.999 972.916 443.203 971.76C449.84 974.891 455.449 975.299 462.395 972.845C470.663 969.924 480.214 963.06 483.929 954.88C489.323 943.005 484.631 934.24 493.919 922.454C494.737 920.071 496.433 919.402 498.431 917.961L496.727 917.535L498.468 917.504C496.685 918.473 494.463 919.974 492.391 920.008C492.051 920.014 491.71 919.991 491.37 919.982C486.405 921.269 480.634 923.487 475.621 924.009C472.411 924.344 468.563 922.58 465.284 922.303C453.719 921.327 439.966 928.481 434.212 938.58C432.568 941.465 431.172 944.564 429.839 947.606L432.152 963.359C430.87 965.921 429.503 968.482 427.702 970.722C422.307 977.433 415.476 983.04 409.656 989.387C406.545 992.779 404.322 997.042 401.08 1000.25C399.384 1001.92 397.058 1003.87 394.747 1004.59C393.983 1004.83 393.286 1004.79 392.499 1004.76L392.031 1003.5C397.371 992.138 418.194 978.934 425.876 961.813C424.48 950.629 423.894 941.168 431.302 931.837C438.184 923.168 448.473 918.151 459.374 916.983C467.251 916.138 475.061 919.037 482.948 917.462C493.469 915.362 503.552 905.005 512.825 899.736C522.632 894.163 533.283 889.238 543.563 884.595C584.404 866.149 618.006 859.766 662.046 856.506C683.559 854.914 702.711 854.302 724.379 855.49C740.309 856.363 756.898 858.674 772.767 860.505C788.431 862.312 804.173 865.776 819.651 868.796C860.83 876.831 901.181 886.543 940.984 899.955C944.079 900.998 955.307 905.893 957.536 903.428C950.231 898.849 917.444 888.763 906.734 885.047Q890.341 879.336 873.745 874.244Q857.149 869.151 840.374 864.683Q823.599 860.215 806.668 856.379Q789.737 852.542 772.675 849.342Q755.613 846.142 738.442 843.583Q721.272 841.023 704.018 839.109Q686.764 837.194 669.45 835.927Q652.136 834.66 634.787 834.042C610.339 833.375 585.959 834.778 561.533 835.219C557.679 835.288 537.353 836.312 534.894 835.245C531.616 833.822 534.176 830.66 530.606 831.478C529.652 834.543 530.983 836.948 529.311 839.768C523.972 842.058 451.968 840.671 439.511 840.789C436.301 838.074 440.371 834.708 433.58 835.303C426.611 835.915 419.774 840.3 413.058 840.452C410.243 835.349 411.364 815.607 411.648 809.21C412.388 808.159 412.395 807.648 413.722 807.331C419.117 806.044 431.032 811.674 436.975 812.775L439.062 804.677C453.371 807.426 466.296 805.28 480.526 806.031Z"/>
	<path fill="#E1E0E0" d="M486.06 777.752L488.335 778.894C491.483 785.151 489.281 799.879 488.848 807.048L486.51 805.829C483.397 799.765 484.81 784.415 486.06 777.752Z"/>
	<path fill="#FEFEFE" d="M530.751 818.664C538.491 818.598 555.272 816.984 561.752 819.459L561.628 825.516C551.843 825.745 541.148 828.614 531.789 824.905C530.058 822.764 530.627 821.28 530.751 818.664Z"/>
	<path fill="#FEFEFE" d="M664.029 860.815C676.484 858.516 712.975 859.327 726.958 860.346C734.178 860.872 741.395 862.28 748.617 862.518C748.819 863.431 749.046 864.058 748.86 864.99C739.164 865.039 729.559 863.445 719.892 862.91C707.113 862.204 693.898 862.774 681.101 863.182C677.086 862.537 673.041 863.097 669.004 862.851C666.409 862.692 665.725 862.778 664.029 860.815Z"/>
	<path fill="#FEFEFE" d="M417.414 813.454C424.094 815.484 430.909 817.149 437.661 818.927C437.771 822.025 438.528 824.837 437.14 827.661L434.783 828.27C430.303 829.441 423.605 832.129 419.191 830.829C415.556 826.662 417.194 818.726 417.414 813.454Z"/>
	<path fill="#E1E0E0" d="M748.617 862.518Q771.947 864.891 795.115 868.514Q818.284 872.138 841.224 877.002Q864.164 881.866 886.809 887.957Q909.454 894.047 931.739 901.347C938.978 903.762 950.084 905.396 955.348 910.958L955.414 912.099C954.866 912.273 954.345 912.627 953.769 912.622C949.538 912.588 943.434 908.58 939.244 907.111C928.534 903.358 917.366 900.455 906.483 897.216Q881.042 889.743 855.226 883.688Q829.41 877.633 803.299 873.013Q787.849 870.307 772.31 868.165C765.105 867.237 755.509 867.927 748.86 864.99C749.046 864.058 748.819 863.431 748.617 862.518Z"/>
	<path fill="#E1E0E0" d="M610.112 867.7Q623.387 864.642 636.899 862.917Q650.412 861.191 664.029 860.815C665.725 862.778 666.409 862.692 669.004 862.851C673.041 863.097 677.086 862.537 681.101 863.182C669.926 864.521 658.615 864.411 647.426 865.724C638.508 866.77 628.339 869.572 619.507 869.774C592.305 872.762 566.039 884.187 541.019 894.664C534.006 898.586 526.576 901.785 519.683 905.868C512.374 910.196 501.176 920.014 493.919 922.454C494.737 920.071 496.433 919.402 498.431 917.961L496.727 917.535L498.468 917.504C496.685 918.473 494.463 919.974 492.391 920.008C492.051 920.014 491.71 919.991 491.37 919.982C502.457 909.622 527.107 897.67 540.764 890.554C552.665 882.062 595.305 868.915 610.112 867.7Z"/>
	<path fill="#FEFEFE" d="M979.429 872.55C989.719 874.623 1021.5 889.798 1032.88 894.517C1044.44 899.315 1058.24 903.155 1069.04 909.327C1069.29 910.254 1069.15 910.965 1068.95 911.89C1068.29 914.817 1066.99 917.677 1064.45 919.37C1045.07 910.033 1024.02 902.532 1004 894.584C993.644 890.472 983.419 885.018 972.429 882.872C974.419 879.23 976.999 875.907 979.429 872.55Z"/>
	<path fill="#FEFEFE" d="M963.674 905.842C973.386 909.686 1048.54 939.928 1051.99 943.819C1052.32 948.152 1049.75 950.999 1047.16 954.132L1046.75 954.815C1040.48 953.794 1033.54 950.238 1027.63 947.837C1005.14 938.7 983.206 927.134 960.354 919.045C961.978 914.855 962.715 910.226 963.674 905.842Z"/>
	<path fill="#FEFEFE" d="M443.838 810.898C470.369 810.255 497.057 810.748 523.602 810.848C523.413 818.8 523.815 826.727 523.167 834.666C520.167 836.613 454.014 835.379 444.172 835.253L443.838 810.898Z"/>
	<path fill="#FEFEFE" d="M566.788 813.343C584.969 813.709 603.112 813.178 621.31 813.489C651.32 814.001 686.304 815.933 716.114 819.245C764.751 824.649 813.196 836.083 860.243 849.247C868.474 851.55 893.148 856.436 898.724 861.004C901.738 863.473 896.65 865.41 896.892 868.014C897.413 868.102 897.544 868.155 898.033 868.141C901.736 868.029 904.205 865.274 906.668 862.869C925.146 869.521 943.881 875.282 962.256 882.299C980.283 889.182 1114.06 943.802 1119.59 949.769L1119.57 950.35C1115.79 953.733 1103.64 955.689 1098.29 956.882C1085.88 952.807 1074.21 946.818 1062.13 941.883C1027.1 927.565 992.493 912.273 957.291 898.368C884.697 869.693 798.006 845.806 720.706 835.509C710.929 834.206 700.913 834.175 691.08 833.332C649.896 829.802 608.212 827.305 566.862 829.474C566.396 824.26 566.783 818.6 566.788 813.343Z"/>
	<path fill="#010000" d="M355.113 25.9577C359.593 25.6839 364.156 25.181 368.528 26.4462C392.387 33.3504 387.612 63.1534 387.588 82.1658C387.573 94.1228 388.004 105.925 388.45 117.865C388.582 121.409 387.75 127.642 389.451 130.695C390.844 130.652 392.734 130.436 394.085 130.765C400.674 132.368 395.925 139.258 398.441 142.842C399.941 141.51 401.48 140.247 403.049 139C435.446 138.589 465.238 134.901 495.329 150.707C529.076 168.432 540.074 196.564 550.687 230.909C553.676 230.776 556.327 230.543 559.17 231.65L559.639 232.924C557.759 235.363 554.804 236.385 552.075 237.61Q555.124 249.175 557.425 260.911Q559.726 272.648 561.27 284.508Q562.813 296.367 563.592 308.302Q564.371 320.236 564.383 332.196C564.667 390.571 552.942 451.194 537.086 507.144C532.651 522.793 528.301 538.461 521.591 553.321C519.987 556.872 517.604 563.857 513.822 565.283C511.68 560.992 516.101 550.307 517.497 545.483C513.164 552.356 511.538 561.079 507.271 568.198C511.838 568.376 517.845 569.231 522.194 567.946C530.615 565.458 525.21 561.818 539.462 561.782C547.329 556.878 554.425 549.302 561.46 543.23C567.951 537.626 574.88 532.554 581.372 526.955C592.137 517.671 602.422 507.917 613.746 499.288C619.473 494.924 627.811 488.812 635.458 490.065C639.327 490.699 642.995 497.186 645.19 500.239C681.086 500.76 716.898 499.586 752.764 499.357L1020.91 497.376L1021.09 485.232L1023.1 485.504C1032.03 486.794 1041.48 486.25 1050.5 486.288C1060.75 494.353 1134.81 556.137 1136.55 561.905C1141.73 561.776 1147.49 560.794 1151.77 564.284C1152.17 565.225 1152.57 566.235 1153.1 567.109C1156.76 573.074 1185 568.76 1194.42 571.176C1208.57 562.775 1221.36 552.321 1236.03 544.562Q1241.37 541.73 1246.79 539.064Q1252.22 536.398 1257.72 533.901Q1263.22 531.403 1268.8 529.076Q1274.38 526.749 1280.02 524.595Q1285.67 522.441 1291.38 520.462Q1297.09 518.484 1302.86 516.682Q1308.63 514.88 1314.45 513.256Q1320.27 511.633 1326.14 510.19Q1332.01 508.746 1337.92 507.485Q1343.83 506.223 1349.77 505.144Q1355.72 504.065 1361.69 503.17Q1367.67 502.274 1373.67 501.564Q1379.67 500.853 1385.7 500.328Q1391.72 499.802 1397.75 499.463Q1403.78 499.123 1409.83 498.97Q1415.87 498.816 1421.91 498.849C1437.44 498.802 1453.55 499.069 1468.95 501.173C1510.17 506.804 1558.07 518.983 1594.92 538.402C1611.54 547.163 1629.15 559.586 1643.91 571.239C1651.96 577.591 1661.74 583.249 1667.98 591.445C1668.74 595.081 1667.36 598.716 1665.6 601.863C1661.63 608.96 1654.35 614.119 1647.94 618.891C1613.83 644.271 1564.62 665.491 1523.68 676.758Q1519.28 677.967 1514.86 679.075Q1510.44 680.183 1505.99 681.191Q1501.54 682.198 1497.08 683.104Q1492.61 684.01 1488.12 684.815Q1483.63 685.619 1479.13 686.321Q1474.62 687.023 1470.1 687.623Q1465.58 688.222 1461.05 688.719Q1456.52 689.216 1451.98 689.609Q1447.43 690.003 1442.88 690.293Q1438.33 690.583 1433.78 690.769Q1429.22 690.956 1424.66 691.039Q1420.1 691.122 1415.54 691.101Q1410.98 691.081 1406.43 690.956Q1401.87 690.832 1397.32 690.604Q1392.76 690.377 1388.21 690.045Q1383.67 689.714 1379.13 689.279Q1374.59 688.845 1370.06 688.307Q1365.53 687.77 1361.02 687.129Q1356.51 686.489 1352.01 685.746Q1347.51 685.003 1343.03 684.158Q1338.55 683.313 1334.09 682.367Q1329.63 681.42 1325.19 680.373Q1320.75 679.325 1316.34 678.177Q1311.93 677.029 1307.54 675.78Q1303.16 674.532 1298.8 673.185Q1294.45 671.837 1290.12 670.391Q1285.8 668.944 1281.51 667.4Q1277.22 665.856 1272.96 664.215Q1268.71 662.573 1264.5 660.836Q1260.28 659.098 1256.11 657.265Q1251.93 655.432 1247.8 653.505Q1243.67 651.578 1239.58 649.557C1229.65 644.623 1219.85 638.656 1210.74 632.35C1205.78 628.917 1201.09 624.87 1195.82 621.933C1195.62 621.824 1195.42 621.72 1195.22 621.614C1190.64 621.125 1186 620.551 1181.39 620.518C1177.78 620.492 1155.66 620.658 1154.24 622.975C1153.6 624.007 1153.86 625.878 1152.94 626.736C1149.19 630.211 1141.99 629.031 1137.22 628.874C1137.12 629.27 1137.09 629.525 1136.82 629.885C1131.88 636.53 1118.04 647.356 1111.08 653.815L1081.33 681.852C1072.57 690.224 1063.69 700.165 1053.19 706.367C1049.44 708.582 1045.1 708.288 1040.88 708.462C1035.96 708.666 1027.54 709.487 1023.81 705.586C1021.59 703.272 1021.91 700.432 1022.18 697.509L1022.28 696.528L1020.9 695.674C959.057 695.121 897.234 696.828 835.401 696.921C826.05 696.935 816.704 696.186 807.34 696.148C790.823 696.082 649.864 696.389 646.848 697.957C645.814 698.495 645.357 701.272 645.004 702.466C642.522 705.205 638.377 706.371 634.999 707.708C618.415 701.785 602.836 686.61 588.895 675.939C574.59 664.988 559.639 653.616 544.679 643.602C536.562 638.168 530.274 640.327 527.03 637.537C526.914 635.361 526.856 634.213 525.453 632.496C522.238 630.768 517.58 631.544 514.013 631.71C512.647 633.754 511.529 635.878 510.473 638.096C506.801 645.81 498.982 663.407 502.351 671.483C503.061 673.186 505.57 673.813 507.198 674.545C508.581 676.403 509.32 677.469 509.227 679.92C508.845 690.014 503.088 685.079 498.103 690.352C491.948 696.862 493.417 704.51 492.999 712.472C492.906 714.256 492.308 715.65 490.934 716.779C488.002 719.187 481.154 718.034 477.52 717.852L477.411 716.258C477.722 736.134 477.511 756.004 477.743 775.877C477.827 783.104 479.678 792.478 478.212 799.407C477.767 801.511 477.217 802.898 475.402 804.063L474.335 802.941C472.419 797.298 470.31 706.616 472.508 700.67C472.8 699.88 473.872 699.631 474.615 699.271L473.352 699.45C474.235 699.997 475.574 700.612 476.292 701.331C476.954 701.992 476.892 702.888 476.994 703.75L477.731 708.851L478.298 699.637C476.909 696.65 475.193 693.802 473.574 690.934C469.304 688.286 465.233 688.354 463.138 683.083C462.127 680.537 462.737 676.208 464.228 673.859C465.451 671.933 468.257 672.321 470.389 671.785C470.626 671.114 470.728 670.929 470.84 670.274C472.387 661.227 463.257 639.092 458.377 631.57C449.884 631.885 441.511 631.829 433.023 632.557C432.444 627.973 434.175 618.093 431.556 614.558C430.809 613.55 430.354 613.805 429.19 613.655C426.087 617.441 427.561 626.524 427.751 631.304C422.371 631.787 416.961 631.59 411.567 631.508C403.064 621.89 400.757 608.658 401.499 596.166C402.14 585.361 405.836 575.75 413.987 568.502C417.625 568.4 422.136 567.804 425.597 568.932C427.954 569.7 426.729 583.286 428.255 586.354L430.342 586.606L431.927 585.292C433.69 580.719 432.68 573.435 432.681 568.422C444.138 568.399 455.623 568.25 467.077 568.459C473.493 568.575 480.071 569.361 486.474 569.021C489.885 568.84 490.482 568.253 492.69 565.692L492.498 564.374L489.409 563.382C487.814 559.262 493.262 548.786 494.853 544.597C510.04 504.607 519.136 462.927 526.96 420.976C535.833 373.401 539.363 303.743 528.175 256.364C518.114 213.761 506.847 170.825 456.072 164.153C444.936 162.69 432.212 163.187 420.986 163.756C416.562 163.98 407.178 165.508 403.627 163.052C402.156 162.035 402.359 161.103 402.122 159.49C400.434 158.551 400.096 158.726 398.237 158.911C396.561 161.698 399.033 165.794 396.933 169.751C394.206 171.873 392.385 171.691 388.997 172.098C389.878 181.497 390.027 190.792 390.074 200.221C403.749 209.752 414.747 215.524 423.19 230.904C425.223 234.606 425.035 240.27 427.357 243.327C428.927 245.394 432.131 244.925 434.058 247.303C433.045 250.525 429.257 249.293 427.901 251.207C425.932 253.988 431.711 272.56 411.74 292.565C398.564 305.762 380.858 312.276 362.384 312.197C344.232 312.12 329.589 305.664 316.969 292.735Q316.008 291.745 315.096 290.709Q314.185 289.673 313.326 288.593Q312.466 287.514 311.661 286.393Q310.856 285.273 310.106 284.114Q309.357 282.956 308.666 281.762Q307.974 280.567 307.342 279.341Q306.711 278.114 306.14 276.858Q305.569 275.602 305.061 274.319Q304.552 273.037 304.107 271.73Q303.663 270.424 303.283 269.098Q302.903 267.772 302.588 266.428Q302.274 265.085 302.026 263.727Q301.778 262.37 301.597 261.002Q301.416 259.635 301.303 258.259Q301.189 256.884 301.144 255.505Q301.098 254.127 301.12 252.747C301.374 237.07 310.533 219.941 323.152 210.506C327.802 207.03 333.701 205.393 337.935 201.296C341.513 194.222 339.741 181.326 339.634 173.377C337.748 172.593 336.012 171.668 334.241 170.655C331.869 167.48 332.891 162.55 333.08 158.795C327.906 158.466 322.671 158.632 317.488 158.646C316.21 160.17 314.408 162.717 312.569 163.5C307.73 165.558 294.244 166.452 289.399 164.253C288.636 163.907 288.076 161.539 287.758 160.685C282.386 158.491 271.57 159.459 265.56 159.204C265.836 161.719 266.176 164.301 266.136 166.834C266.103 168.957 265.574 171.076 263.926 172.539C260.308 175.753 249.172 174.209 244.344 174.107L244.27 191.943C249.303 192.199 253.473 191.785 258.395 190.785L259.581 191.766C260.793 195.436 261.911 198.433 260.152 202.168C256.181 206.017 246.848 203.963 241.425 203.965C241.804 206.985 242.87 211.444 242.068 214.376C241.594 216.106 241.481 216.409 239.978 217.332C239.724 217.199 239.461 217.081 239.217 216.931C235.773 214.822 235.175 207.621 234.497 203.891C227.007 203.824 219.595 203.776 212.127 204.418C211.887 200.324 211.935 196.181 211.861 192.079L225.926 191.952L225.921 174.143Q216.464 174.31 207.02 173.791C206.828 169.236 206.864 164.648 206.792 160.087C191.745 160.086 175.605 158.589 160.731 160.567C159.667 161.663 158.992 162.914 158.239 164.227C154.338 167.056 149.335 167.113 144.681 167.003C137.521 166.833 136.116 165.789 131.179 161.075C129.111 159.1 124.238 159.883 121.542 159.957L121.509 186.81C135.05 187.014 146.34 191.899 156.902 200.178C168.896 209.579 176.03 221.604 177.856 236.745C179 246.234 178.514 256.029 178.473 265.571Q178.311 287.488 178.435 309.404C178.707 347.378 180.512 385.364 180.01 423.344C179.98 425.565 180.194 428.353 178.776 430.163C177.28 430.998 176.03 431.938 174.245 431.703C172.039 425.009 173.084 409.054 172.874 401.277Q171.883 351.986 171.84 302.686C171.817 281.651 172.579 259.9 170.707 238.972C169.543 225.954 163.621 214.636 153.507 206.352C134.791 191.022 106.506 190.301 83.4414 192.762C64.3994 194.794 47.3765 203.544 39.0297 221.607C30.5159 240.032 34.0365 281.161 34.3117 301.922L34.8279 383.256C34.9228 395.616 36.0586 408.295 35.3891 420.618C35.2536 423.113 34.9537 427.005 33.2184 428.913C32.1693 430.067 31.7241 429.898 30.2862 429.89C29.9063 429.053 29.6292 428.411 29.4465 427.504C27.2183 416.453 29.1023 398.012 28.8425 385.863L27.2985 291.647C27.054 272.641 25.4967 253.151 28.0446 234.27C29.2559 225.292 32.2535 217.582 37.5844 210.226C48.9122 194.594 64.6025 188.52 82.9709 185.557C83.204 178.855 82.4995 172.24 82.0901 165.559C81.7728 160.38 80.562 144.583 84.7902 141.295C87.5235 139.171 90.8249 139.34 93.3069 136.543C91.4652 133.108 93.8632 130.051 92.105 126.641C89.626 125.047 86.8752 125.138 84.0144 124.945L84.0569 112.284C95.4397 112.341 108.06 110.515 119.227 112.439L119.096 124.236C115.625 124.351 112.192 124.909 108.758 125.386L108.734 137.199C114.4 139.461 116.959 140.265 119.954 145.891C122.966 145.835 127.59 146.85 130.333 145.709C132.745 144.706 133.238 142.595 134.258 140.415C139.618 140.493 154.302 138.489 158.255 141.12L158.799 144.839C159.258 145.222 159.294 145.308 159.948 145.54C162.169 146.326 203.626 146.463 205.829 145.522C206.905 145.062 206.936 144.211 207.353 143.176C207.186 141.18 206.574 139.518 205.567 137.791C203.755 134.686 201.213 131.915 198.715 129.346C189.502 119.87 185.661 126.562 173.665 123.286C167.45 121.589 161.455 118.195 158.29 112.391C153.988 104.502 155.639 96.716 158.022 88.6323C160.311 86.3467 162.774 84.1502 165.351 82.1943C171.018 77.8924 179.165 76.4819 186.085 77.5841C192.955 78.6782 199.522 81.9872 203.623 87.7435C208.998 95.2902 208.296 102.835 206.854 111.426C213.969 115.706 220.156 121.753 226.39 127.213C226.006 123.063 226.039 118.85 225.949 114.684C231.523 114.599 237.01 114.775 242.573 115.093C242.999 119.096 243.034 123.187 243.217 127.21C251.274 121.213 256.203 114.59 265.728 110.373C264.521 108.944 263.348 107.489 262.471 105.827C259.947 101.046 261.394 94.7998 263.017 89.9069Q263.191 89.3956 263.39 88.8937Q263.589 88.3919 263.814 87.9008Q264.039 87.4097 264.288 86.9306Q264.537 86.4515 264.81 85.9856Q265.083 85.5198 265.38 85.0684Q265.676 84.617 265.995 84.1812Q266.314 83.7454 266.655 83.3263Q266.995 82.9072 267.357 82.5059Q267.718 82.1047 268.1 81.7222Q268.481 81.3398 268.881 80.9772Q269.281 80.6146 269.699 80.2727Q270.117 79.9308 270.552 79.6106Q270.987 79.2904 271.438 78.9926Q271.888 78.6948 272.354 78.4202Q272.819 78.1457 273.297 77.895Q273.775 77.6444 274.266 77.4183C281.607 73.9542 290.855 74.1398 298.366 76.9717C304.307 79.2117 309.456 83.3719 312.053 89.2549C314.554 94.9177 314.279 101.226 311.99 106.909C309.546 112.979 305.332 117.537 299.255 120.086C291.546 123.32 283.919 122.785 276.333 119.681C273.483 125.776 270.624 129.538 265.582 134.027C265.165 137.348 265.101 140.761 264.915 144.104C271.042 144.304 280.749 145.748 286.444 144.042C288.288 143.49 287.265 141.573 288.131 139.965C293.559 138.402 300.818 138.912 306.499 138.742C312.971 138.548 311.052 140.273 315.183 143.739C316.836 145.126 317.323 143.422 318.986 143.185C322.088 142.743 326.06 145.071 329.668 144.44C335.525 143.415 330.716 135.713 333.06 132.212C334.38 131.877 336.036 131.611 337.175 130.85C341.583 127.907 336.917 114.694 337.162 110.272C337.208 109.459 338.667 108.256 338.902 107.475C339.582 105.22 338.775 100.073 338.752 97.4586C338.601 79.9519 335.871 53.6343 339.418 37.3448C344.279 31.8672 348.406 28.9338 355.113 25.9577Z"/>
	<path fill="#E1E0E0" d="M292.905 144.578C296.637 144.366 301.641 143.532 305.283 144.375C306.988 144.77 307.085 144.94 307.936 146.435L307.225 148.755C304.507 149.201 298.786 148.865 296.185 148.012C293.996 147.293 293.955 146.542 292.905 144.578Z"/>
	<path fill="#FEFEFE" d="M120.73 150.943C124.386 150.703 128.853 149.921 132.299 151.314C133.68 153.098 133.229 153.706 133.019 155.891C129.646 156.174 126.184 156.741 122.88 155.796C120.965 154.088 121.15 153.525 120.73 150.943Z"/>
	<path fill="#FEFEFE" d="M231.538 119.938C233.724 119.881 235.121 119.857 237.088 120.871C238.709 123.463 237.764 127.789 237.496 130.772C235.386 130.785 234.18 130.707 232.318 129.676C230.75 127.068 231.419 122.932 231.538 119.938Z"/>
	<path fill="#FEFEFE" d="M137.44 146.219C141.161 145.903 148.803 144.505 151.876 146.734C153.013 147.558 153.016 149.426 153.306 150.766C149.871 150.981 144.717 151.83 141.497 150.719C138.911 149.827 138.638 148.526 137.44 146.219Z"/>
	<path fill="#FEFEFE" d="M322.639 149.796C325.389 149.762 328.66 149.413 331.202 150.602C332.43 151.176 332.372 151.305 332.823 152.546C331.006 153.72 329.366 153.556 327.258 153.555C322.52 153.703 317.075 154.152 313.031 151.202C313.955 150.697 315.074 149.942 316.141 149.871C318.266 149.729 320.5 149.828 322.639 149.796Z"/>
	<path fill="#FEFEFE" d="M98.0075 125.066C99.7983 125.065 101.063 125.075 102.702 125.839C104.73 129.056 103.788 134.251 103.689 137.969C102.128 137.928 100.886 137.732 99.3719 137.349C96.9368 133.708 97.8231 129.308 98.0075 125.066Z"/>
	<path fill="#FEFEFE" d="M427.488 592.782C429.088 592.897 430.227 593.008 431.688 593.769C433.714 597.696 432.708 603.328 432.556 607.655C430.802 607.503 429.733 607.399 428.278 606.37C426.464 602.31 427.356 597.152 427.488 592.782Z"/>
	<path fill="#FEFEFE" d="M293.947 153.654C297.988 153.493 305.15 152.466 308.522 155.049C308.52 156.949 307.924 157.356 306.836 158.867C302.633 158.402 298.218 160.551 294.3 158.398C293.028 156.396 293.514 155.916 293.947 153.654Z"/>
	<path fill="#FEFEFE" d="M100.986 116.609C105.214 115.727 109.668 115.9 113.559 117.839L113.516 119.046C111.146 120.156 108.904 120.074 106.343 120.138C102.133 120.206 97.5722 120.597 93.3979 120.146C91.4372 119.934 90.7808 119.819 89.5893 118.303C91.2585 116.603 98.3231 116.819 100.986 116.609Z"/>
	<path fill="#FEFEFE" d="M264.667 150.457Q268.034 150.091 271.414 149.871C275.39 149.634 284.991 148.521 287.89 151.11L287.807 153.404C281.964 153.397 271.598 155.581 266.474 153.232C265.202 152.65 265.156 151.695 264.667 150.457Z"/>
	<path fill="#FEFEFE" d="M139.955 154.687C143.474 154.479 148.219 153.664 151.477 155.026C153.046 157.242 152.581 158.474 152.447 161.043C148.665 161.047 143.228 162.187 139.871 160.38C138.676 158.04 139.349 157.083 139.955 154.687Z"/>
	<path fill="#FEFEFE" d="M231.654 174.141C234.397 174.269 235.746 173.859 237.787 175.832C239.556 180.534 238.186 186.918 238.126 191.931C235.619 191.866 234.131 192.289 232.172 190.536C230.397 185.527 231.429 179.44 231.654 174.141Z"/>
	<path fill="#FEFEFE" d="M410.332 580.6L411.542 582.168C412.139 588.994 412.954 614.91 411.203 620.324L410.002 619.723C405.354 605.785 405.439 594.478 410.332 580.6Z"/>
	<path fill="#E1E0E0" d="M417.5 574.283L419.671 574.973C422.725 579.526 421.22 613.473 420.996 620.999C420.913 623.805 420.91 625.126 418.873 627.03C416.328 623.426 417.087 581.626 417.5 574.283Z"/>
	<path fill="#FEFEFE" d="M477.178 687.089C482.257 688.101 487.752 687.31 492.888 686.97C488.017 694.571 488.07 701.031 488.093 709.762C488.088 709.832 488.09 709.902 488.079 709.97C487.733 712.037 487.875 713.026 486.13 714.237C482.121 711.815 481.902 700.141 480.706 695.548C479.929 692.559 478.58 689.828 477.178 687.089Z"/>
	<path fill="#FEFEFE" d="M473.529 676.753C480.162 676.641 497.553 674.524 502.677 678.571C503.052 680.915 502.663 680.914 501.345 682.77L498.254 683.099C489.741 683.126 479.587 684.237 471.352 682.505C469.606 681.097 469.438 681.263 469.163 678.907C470.623 677.05 471.281 677.242 473.529 676.753Z"/>
	<path fill="#E1E0E0" d="M179.308 149.979C184.908 152.677 199.491 149.203 206.679 151.151L206.787 152.611C202.751 156.153 190.291 154.99 184.692 155.184C179.569 156.35 163.179 157.002 159.016 154.267C158.091 153.659 158.319 153.561 158.16 152.563C161.599 149.45 174.407 150.386 179.308 149.979Z"/>
	<path fill="#E1E0E0" d="M363.687 171.089L366.391 172.025C367.194 174.641 367.852 226.824 367.246 230.963L363.995 230.543L363.082 229.341C362.112 218.097 361.338 181.414 363.687 171.089Z"/>
	<path fill="#E1E0E0" d="M1142.66 568.86L1146.69 568.559C1148.83 573.198 1148.19 610.092 1148.28 617.67C1148.31 620.354 1148.46 620.519 1146.58 622.449L1144.68 622.307C1140.28 617.513 1145.98 578.389 1142.66 568.86Z"/>
	<path fill="#E1E0E0" d="M532.099 566.821L534.593 567.423C537.105 570.689 535.94 626.077 535.508 633.885L533.314 633.641C533.019 633.212 532.24 632.355 532.113 631.899C531.439 629.472 531.886 573.263 532.099 566.821Z"/>
	<path fill="#E1E0E0" d="M362.242 57.5878C363.801 58.1652 365.445 59.3976 366.613 60.5746C368.802 62.7796 368.771 121.389 368.445 129.885L366.917 131.216C364.519 131.698 362.743 131.457 360.365 130.957C358.384 127.664 358.885 117.75 359.833 113.867C360.614 114.707 361.394 115.404 362.298 116.11C364.277 116.043 364.582 116.202 366.183 114.914L365.941 113.265C363.388 112.288 361.437 113.528 359.267 112.406L359.34 110.858C361.595 109.08 363.576 109.563 365.804 107.741L364.736 107.043C363.861 106.854 362.965 106.68 362.11 106.415C360.242 105.837 360.021 105.524 359.093 103.796L359.934 102.071L363.435 103.333L365.423 102.252L365.522 101.119C363.375 100.204 361.438 99.2581 359.491 97.9675C358.768 95.9717 358.786 95.9763 359.589 94.0081C360.982 94.642 362.353 95.0829 363.822 95.5073C365.258 94.5527 365.493 94.5827 366.03 92.8656C364.368 91.8388 360.81 91.995 358.722 91.2639L358.477 90.0676L359.738 88.845C361.242 88.9318 363.7 89.3323 364.982 88.5156C365.864 87.9539 365.706 87.5994 365.941 86.6445C363.863 85.0887 361.372 85.625 358.898 84.8417C359.544 83.2851 364.673 80.9126 366.356 79.733C364.352 78.0576 361.205 79.4518 358.544 77.9826C358.729 76.1045 358.937 76.1544 360.254 74.9274C362.201 74.8869 363.922 74.9995 365.678 74.0763C365.922 72.3345 366.071 72.3921 365.034 70.9999C363.208 71.1366 361.527 71.2019 359.703 71.0198L359.174 69.2626C360.669 67.2681 363.7 68.97 365.945 67.2797L366.048 65.1688C364.015 63.4186 361.524 64.0689 359.069 62.9518C359.251 60.9039 361.02 59.1661 362.242 57.5878Z"/>
	<path fill="#FEFEFE" d="M360.143 236.411L372.012 236.352C370.1 247.687 371.022 269.344 371.396 281.595C367.547 282.741 363.5 283.208 359.536 283.807C358.738 275.044 357.778 243.384 360.143 236.411Z"/>
	<path fill="#FEFEFE" d="M234.513 155.441C240.041 154.619 252.042 155.453 258.408 155.328C258.415 159.571 258.206 163.832 258.092 168.075C251.48 168.582 243.645 167.189 237.406 169.172C229.298 168.345 221.19 168.996 213.07 168.221L212.1 166.425C212.811 163.635 212.403 160.989 213.382 158.271C217.266 154.221 228.75 155.942 234.513 155.441Z"/>
	<path fill="#FEFEFE" d="M242.849 135.184C249.116 131.101 253.866 124.604 259.911 120.014L266.843 124.643C264.248 127.272 261.248 129.626 258.449 132.044L258.418 148.164Q235.095 148.344 211.771 148.181L211.875 134.438L202.305 125.901L210.113 120.332C216.067 124.926 221.389 130.104 226.784 135.331C232.136 135.502 237.497 135.304 242.849 135.184Z"/>
	<path fill="#FEFEFE" d="M95.0423 143.462C101.096 144.741 107.524 144.42 113.688 144.494C113.685 151.708 116.418 181.046 114.348 185.359L112.268 185.747L89.5659 185.7C89.6274 173.159 89.0967 160.618 89.3561 148.08C90.3678 145.616 92.8185 144.694 95.0423 143.462Z"/>
	<path fill="#FEFEFE" d="M179.055 83.1345C181.36 81.978 186.217 82.6298 188.596 83.4256C207.902 89.8847 198.683 101.418 200.993 112.15C201.294 113.549 203.163 115.995 203.886 117.433L203.027 118.917C200.267 119.598 197.443 118.711 194.724 118.072C191.325 117.274 189.324 118.145 186.176 119.372C180.906 120.203 176.093 120.149 171.342 117.455C164.548 113.602 162.039 106.865 160.07 99.738C160.933 97.381 161.907 94.9199 163.163 92.7434C165.634 88.4621 168.828 86.4263 173.572 85.2676C175.051 85.7708 176.066 86.1036 177.664 85.8976L179.055 83.1345Z"/>
	<path fill="#010000" d="M171.282 89.6366C171.777 89.7203 172.276 89.7913 172.764 89.9084C174.785 90.393 185.005 93.4543 185.655 95.1099C186.496 97.2538 183.905 98.0222 186.557 100.663C188.957 103.051 192.981 105.152 194.48 108.278C195.51 110.424 194.607 112.042 193.948 114.144C188.358 111.343 184.88 105.294 179.316 102.18C178.431 102.304 177.947 102.6 177.237 103.109L176.393 103.723L175.218 102.829C173.735 98.88 171.123 93.8763 171.282 89.6366Z"/>
	<path fill="#FEFEFE" d="M282.837 79.9118C287.451 79.8231 292.277 79.8102 296.628 81.5763C303.748 84.4659 306.104 90.948 308.817 97.4949C306.872 104.572 304.552 110.694 297.847 114.631C293.752 117.035 289.109 117.799 284.525 116.596C281.201 115.621 277.688 115.071 274.289 114.392C272.516 116.385 270.821 118.735 268.392 119.923L267.235 118.224C267.146 114.686 269.295 113.644 269.516 110.407C270.034 102.811 264.31 97.0296 269.108 89.1101C271.863 84.5629 277.851 81.3224 282.837 79.9118Z"/>
	<path fill="#010000" d="M298.485 88.195L300.112 88.5147C299.873 92.1692 298.918 95.6991 297.61 99.1038C289.46 98.8082 284.976 107.957 277.931 110.984L276.234 108.766C275.771 102.955 285.394 100.738 287.56 95.8452C288.077 94.679 286.339 92.629 285.848 91.3419C288.573 89.1746 294.993 88.84 298.485 88.195Z"/>
	<path fill="#FEFEFE" d="M371.58 135.703C378.123 136.049 384.19 135.863 390.702 135.189C391.577 140.876 393.691 158.664 391.086 163.321C386.337 167.392 370.186 166.002 363.724 166.313C355.49 167.038 346.863 166.4 338.623 165.957C338.489 156.246 338.594 146.516 338.583 136.803Q355.109 137.072 371.58 135.703Z"/>
	<path fill="#FEFEFE" d="M1153.89 575.525C1164.58 573.683 1182.86 574.169 1193.45 575.994C1193.77 576.419 1193.91 576.54 1194.06 577.127C1194.6 579.305 1194.98 608.033 1194.81 611.58C1194.76 612.538 1194.28 613.49 1193.81 614.307C1190.85 616.12 1158.09 615.012 1152.58 614.979C1155.3 610.442 1153.89 583.113 1153.89 575.525Z"/>
	<path fill="#FEFEFE" d="M363.545 31.4783C365.709 31.3964 367.944 32.2744 369.94 33.0502C374.144 34.6842 376.772 38.0628 378.514 42.0781C379.962 45.4143 380.637 49.0787 380.921 52.6895C382.167 68.5405 381.023 85.2005 381.038 101.122C381.045 109.413 382.138 117.63 382.109 125.849C382.104 127.418 381.892 128.746 381.329 130.221C379.292 131.331 378.867 131.244 376.523 131.063C375.992 130.645 375.336 130.347 374.928 129.808C371.001 124.607 379.455 65.6059 369.945 55.3603C367.837 53.0896 365.773 52.8826 362.86 52.8332L361.969 52.8238Q361.135 53.2627 360.314 53.7267C357.685 55.2177 355.002 56.9997 353.896 59.9527C352.318 64.1677 353.459 71.0738 353.548 75.5941C353.726 84.6432 355.08 123.618 353.181 130.479C352.756 130.67 352.371 130.872 351.919 130.981C349.821 131.488 347.315 131.056 345.618 129.884C343.754 121.448 343.401 47.5576 345.311 41.5948C348.159 32.7061 356.541 35.1709 363.545 31.4783Z"/>
	<path fill="#FEFEFE" d="M442.53 573.832C458.261 574.094 474.021 573.86 489.754 573.815C482.91 586.811 478.616 601.047 472.276 614.302C469.282 618.611 465.372 622.491 461.886 626.415C454.484 626.568 447.162 626.899 439.836 625.61C439.05 624.939 438.807 624.994 438.624 623.927C437.479 617.252 436.227 578.48 439.118 574.32L442.53 573.832Z"/>
	<path fill="#010000" d="M446.185 593.661C447.941 594.204 450.165 595.03 451.732 595.972C453.79 597.21 453.961 598.154 454.618 600.308C454.257 602.782 453.103 604.222 451.644 606.144C449.864 606.018 447.747 605.674 446.128 604.93C443.94 603.923 443.5 602.964 442.677 600.891C442.703 597.838 444.422 595.961 446.185 593.661Z"/>
	<path fill="#010000" d="M442.982 610.976C445.306 610.888 448.443 610.551 450.599 611.486C452.717 612.404 453.199 613.108 453.978 615.106C453.607 617.436 453.085 619.03 451.85 621.045C449.345 621.322 446.458 621.758 444.099 620.631C442.655 619.941 441.749 619.107 441.326 617.541C440.73 615.338 441.939 612.856 442.982 610.976Z"/>
	<path fill="#010000" d="M446.726 578.221C449.036 579.206 451.687 580.329 453.347 582.286C454.78 583.974 454.709 584.927 454.555 586.964C453.258 589.628 450.98 590.359 448.435 591.498L447.853 591.809C446.39 591.657 445.103 591.6 443.997 590.483C442.198 588.665 441.905 586.502 442.138 584.059C442.367 581.653 445.029 579.709 446.726 578.221Z"/>
	<path fill="#FEFEFE" d="M505.804 573.814L526.831 573.814Q527.063 600.169 526.742 626.524L511.582 626.449C507.902 620.678 501.102 605.219 497.099 601.691C495.864 600.602 495.19 600.882 493.701 600.968C493.015 601.742 492.888 601.92 492.891 602.947C492.911 609.405 503.23 624.19 507.64 628.729C504.467 634.58 502.022 640.991 499.385 647.107C496.236 655.193 494.65 664.437 493.549 673.013L477.872 672.953C477.198 656.419 472.941 643.561 465.758 628.852C474.13 621.82 478.129 613.539 481.897 603.513L491.137 603.044L491.384 602.641C496.938 593.415 499.933 582.664 505.804 573.814Z"/>
	<path fill="#FEFEFE" d="M1026.21 491.484C1032.56 491.1 1038.95 491.203 1045.31 491.183C1045.88 492.319 1046.44 493.359 1046.63 494.639C1047.97 504.014 1047.13 514.951 1047.31 524.497C1047.72 547.15 1048.13 569.745 1048.14 592.405L1048.17 666.242C1048.23 677.343 1049.08 688.444 1048.73 699.54L1047.13 701.011C1041.48 702.207 1034.19 701.338 1028.35 701.248C1029.14 679.664 1028.36 657.931 1028.24 636.338L1027.58 519.522C1027.51 510.178 1026.04 500.709 1026.21 491.484Z"/>
	<path fill="#FEFEFE" d="M450.736 144.361C465.626 143.847 481.775 148.646 494.685 155.991C523.513 172.39 535.759 200.924 544.31 231.321C540.05 232.138 534.743 232.564 531.716 235.982L532.147 237.306C536.82 239.48 542.074 237.93 546.921 237.058C551.657 258.715 555.626 279.903 557.366 302.037C561.398 353.345 553.895 408.336 543.34 458.453C540.894 470.072 525.164 538.241 518.143 542.819L515.586 541.827C508.407 544.811 495.592 592.844 487.367 598.308L485.948 597.837C484.583 591.021 494.033 574.911 497.03 568.704C500.105 560.778 504.469 553.384 507.378 545.388C508.235 543.033 509.033 540.662 507.94 538.264L506.307 537.823C503.603 539.942 501.777 543.65 499.966 546.561Q505.226 531.661 509.882 516.562Q514.538 501.463 518.581 486.188Q522.625 470.914 526.05 455.489Q529.474 440.063 532.275 424.513C543.42 359.578 545.826 292.728 526.557 229.068C522.639 216.126 518.696 202.533 510.786 191.416C494.986 169.212 474.305 162.262 448.78 157.902L447.163 153.929C442.734 150.018 408.185 154.008 405.624 152.784C404.264 152.135 402.178 152.989 400.669 153.336C398.925 152.688 398.797 152.537 397.69 151.031L398.644 149.458C403.845 145.875 436.35 149.395 445.488 148.028C448.606 147.562 448.977 146.812 450.736 144.361Z"/>
	<path fill="#FEFEFE" d="M377.954 288.106C377.812 280.427 378.99 237.58 377.18 233.799C376.375 232.119 374.364 230.292 373.077 228.938C372.365 219.078 370.833 179.736 373.008 172.101C375.105 171.201 376.419 171.082 378.676 171.363C381.77 173.476 382.497 175.874 382.737 179.562C383.134 185.651 380.832 198.022 383.551 203.201C384.461 204.934 404.457 217.84 408.279 221.703C411.461 224.918 413.636 228.852 415.868 232.746C417.795 235.55 419.953 240.082 419.966 243.526C417.229 249.551 411.275 246.171 407.008 249.661L407.312 251.366C411.177 253.17 416.078 250.41 420.312 251.935C420.999 253.35 421.145 254.546 421.18 256.111C421.441 267.733 415.393 279.548 407.514 287.764C396.291 299.468 381.52 305.244 365.429 305.483C348.196 305.739 333.812 300.044 321.534 287.983C313.001 279.601 308.374 267.468 308.406 255.56C308.451 238.83 317.083 223.985 330.585 214.464C335.62 210.913 341.049 208.472 345.411 203.986C345.65 203.74 345.884 203.489 346.121 203.241C346.109 192.717 345.83 182.109 346.549 171.606C350.238 171.817 353.959 171.693 357.653 171.658C357.984 191.044 357.353 210.435 358.024 229.822L352.716 233.71C352.584 251.281 355.859 271.053 352.399 288.188C360.97 288.963 369.38 288.535 377.954 288.106Z"/>
	<path fill="#FEFEFE" d="M1052.62 499.855C1053.11 499.82 1053.39 499.79 1053.91 499.8C1060.69 499.923 1129.17 561.965 1136.94 570.43C1138.04 578.089 1139.27 615.228 1135.92 621.368C1135.24 623.902 1101.91 653.984 1097.04 657.693C1096.2 660.941 1066.11 686.506 1061.17 691.535C1059.62 693.11 1058.06 694.765 1055.81 694.802C1054.14 686.302 1055.46 673.361 1055.18 664.217C1053.79 619.232 1055.48 574.146 1054.05 529.185C1053.77 520.34 1055.01 508.133 1052.62 499.855Z"/>
	<path fill="#FEFEFE" d="M626.549 497.978L627.493 497.878C631.178 497.5 633.258 497.175 636.226 499.595C637.434 502.052 638.078 504.384 638.18 507.12C638.523 516.311 637.402 525.676 637.581 534.933Q639.301 593.49 639.155 652.072C639.198 664.799 641.199 687.31 637.92 698.678C637.277 698.896 637.008 699.025 636.377 699.124C627.098 700.58 595.712 673.451 587.749 667.411C573.421 655.233 556.386 646.003 542.169 633.552C540.323 611.841 542.035 589.87 541.906 568.096C549.965 562.355 557.277 555.558 564.797 549.141C584.914 531.974 604.988 513.184 626.549 497.978Z"/>
	<path fill="#FEFEFE" d="M1409.78 505.816L1410.3 505.767C1420.02 504.892 1429.93 506.18 1439.68 506.537C1514.58 509.28 1591.48 535.218 1649.4 583.464C1652.79 586.282 1658.54 591.064 1658.71 595.844C1658.83 599.237 1656.79 602.283 1654.59 604.679C1648.72 611.039 1640.01 616.119 1632.86 621.03C1597.73 645.152 1548.07 665.249 1506.7 674.788C1486.29 679.494 1465.02 682.055 1444.13 683.087L1442.78 683.288C1432.7 684.751 1422.62 684.711 1412.46 684.706C1351.46 684.675 1288.87 667.498 1235.18 638.86C1231.6 636.955 1227.81 635.597 1224.3 633.528C1216.38 628.853 1208.57 623.106 1201.19 617.617C1200.94 603.546 1200.96 589.704 1201.17 575.621C1207.84 569.916 1215.47 565.519 1222.93 560.926Q1226.76 558.585 1230.65 556.337Q1234.54 554.09 1238.48 551.938Q1242.43 549.786 1246.42 547.73Q1250.41 545.675 1254.46 543.717Q1258.5 541.76 1262.59 539.901Q1266.68 538.042 1270.81 536.284Q1274.94 534.525 1279.12 532.868Q1283.29 531.211 1287.51 529.655Q1291.72 528.1 1295.97 526.648Q1300.22 525.196 1304.51 523.848Q1308.79 522.499 1313.11 521.256Q1317.43 520.012 1321.77 518.874Q1326.12 517.736 1330.49 516.704Q1334.86 515.672 1339.26 514.747Q1343.65 513.821 1348.07 513.003Q1352.48 512.185 1356.92 511.475C1374.19 508.68 1391.98 508.704 1409.12 505.928L1409.78 505.816Z"/>
	<path fill="#010000" d="M1411.78 575.526C1413.11 575.407 1415.33 575.242 1416.47 575.999C1420.3 578.544 1432.94 599.078 1433.68 604.029C1433.97 605.959 1433.78 606.138 1432.64 607.704C1430.26 608.067 1428.79 607.49 1426.6 606.57C1426.03 605.486 1425.48 604.321 1424.77 603.319C1423.36 601.305 1421.85 601.367 1419.6 600.904C1404.92 600.226 1412.51 601.808 1404.4 608.436C1402.15 608.784 1401.63 608.714 1399.48 607.937C1397.3 601.885 1408.9 581.744 1411.78 575.526Z"/>
	<path fill="#010000" d="M1454.27 575.528C1458.15 575.78 1462.84 575.601 1466.41 577.191C1467.5 578.705 1467.59 579.964 1467.78 581.793C1465.18 585.695 1455.44 581.631 1450.91 583.54C1449.15 584.286 1447.93 585.374 1447.34 587.268C1446.37 590.418 1447.11 597.651 1448.75 600.445C1450.57 601.679 1452.7 602.341 1454.94 602.06C1456.85 601.82 1457.55 600.942 1458.55 599.465C1457.51 596.593 1454.02 595.74 1452.14 593.315L1452.39 591.882C1454.27 590.645 1456.08 590.479 1458.24 590.187C1461.45 590.177 1464.47 590.471 1467.64 590.925C1468.26 594.767 1469.27 600.007 1467.32 603.541C1465.23 605.305 1462.93 606.367 1460.35 607.223C1455.52 608.82 1448.72 608.932 1444.17 606.447C1436.35 602.176 1440.34 591.518 1438.33 584.364C1438.27 584.156 1438.2 583.95 1438.13 583.743C1440.4 582.27 1442.58 579.115 1443.31 576.555Q1448.8 576.183 1454.27 575.528Z"/>
	<path fill="#010000" d="M1366.63 576.357C1371.68 576.16 1377.01 575.853 1382.03 576.461C1385.3 576.857 1389.39 578.036 1391.37 580.861C1394.1 584.778 1390.79 586.683 1391.6 590.021C1392.67 594.389 1396.54 595.318 1395.92 600.677C1394.6 602.753 1393.4 603.996 1391.39 605.405C1391.1 605.864 1391.07 605.998 1390.71 606.347C1386.77 610.224 1370.65 608.458 1364.91 608.335C1368.71 600.469 1363.16 584.794 1366.63 576.357Z"/>
	<path fill="#FEFEFE" d="M1377.72 595.444C1379.24 595.275 1380.96 595.011 1382.48 595.201C1384.59 595.466 1386.28 596.285 1387.57 597.919C1386.26 599.961 1385.14 600.245 1383.07 601.256C1381.01 602.05 1379.58 601.986 1377.41 601.803C1375.45 600.629 1375.18 600.555 1374.31 598.48C1375.37 596.399 1375.57 596.408 1377.72 595.444Z"/>
	<path fill="#FEFEFE" d="M901.527 503.384C913.199 503.836 925.428 502.871 937.189 502.869L1020.98 502.962L1022.02 688.335C996.74 692.177 970.424 686.844 945.095 689.874C941.726 690.277 940.895 689.906 938.307 687.789C921.128 690.579 904.142 689.502 886.831 689.682Q849.575 690.351 812.314 690.591C803.922 690.652 788.557 689.639 781.24 690.565C780.371 690.675 780.082 690.321 779.324 689.915C768.178 693.403 711.732 690.673 696.624 690.554C679.688 690.421 662.683 691.144 645.716 691.083C644.653 668.654 645.892 645.954 645.411 623.476L644.238 547.052C644.156 533.232 643.746 519.286 644.508 505.488C672.209 504.634 700.133 505.414 727.86 505.352L830.98 504.167C854.288 503.961 878.357 505.807 901.527 503.384Z"/>
	<path fill="#010000" d="M889.188 578.11C890.225 578.59 891.169 579.21 892.142 579.807C893.66 583.232 893.73 587.676 894.031 591.387C894.48 596.93 895.748 608.132 892.167 612.345C890.928 612.048 889.914 611.586 888.764 611.052C888.268 610.177 887.841 609.26 887.671 608.26C886.521 601.498 885.357 583.222 889.188 578.11Z"/>
	<path fill="#010000" d="M857.062 580.089C859.25 580.039 861.254 579.701 863.095 581.076C866.818 587.39 865.01 597.59 864.97 604.788C869.218 604.386 875.307 603.001 879.11 605.384C880.26 607.658 880.08 608.33 879.858 610.913C871.94 611.093 865.054 612.101 857.09 610.845C856.887 600.602 857.048 590.334 857.062 580.089Z"/>
	<path fill="#010000" d="M807.856 580.555C809.331 581.038 810.841 581.565 812.042 582.582C814.296 584.49 829.412 607.953 829.735 610.305C829.181 610.751 828.781 611.079 828.106 611.329C819.864 614.381 822.419 607.091 816.88 605.08C816.569 604.967 816.25 604.876 815.935 604.774C813.17 605.309 808.926 604.796 806.549 605.505C803.142 606.522 800.868 611.746 796.592 612.968C794.439 612.451 794.353 612.415 793.001 610.664C798.589 601.012 803.084 590.631 807.856 580.555Z"/>
	<path fill="#010000" d="M708.869 581.099C715.135 580.09 721.876 581.347 728.15 581.983C726.506 584.622 724.578 586.85 722.522 589.169C718.578 587.846 715.83 586.833 711.638 588.063L711.115 589.205C713.153 591.326 716.051 591.574 718.825 592.179C721.952 594.922 724.888 597.43 725.585 601.798C725.925 603.933 725.478 606.087 724.117 607.796C720.813 611.946 715.566 612.171 710.727 612.558C706.141 611.701 701.105 611.511 698.115 607.614C698.361 604.576 699.661 603.731 701.597 601.441C704.475 603.074 707.736 605.41 711.048 605.694C713.155 605.071 716.208 604.622 717.542 602.788C714.378 597.279 704.023 598.625 700.972 591.317C700.371 589.877 701.013 587.66 701.626 586.315C703.167 582.937 705.618 582.217 708.869 581.099Z"/>
	<path fill="#010000" d="M956.222 579.67C957.911 579.124 959.246 579.111 960.997 579.495C962.542 579.834 963.897 580.607 964.733 581.979C965.659 583.5 965.562 583.752 965.125 585.457C961.189 588.02 954.029 586.019 949.241 587.386L948.984 588.681C952.885 594.353 958.561 589.325 962.697 592.542L962.814 595.464C960.438 600.282 953.788 597.238 949.334 599.065C948.738 600.802 948.722 600.809 949.343 602.535C952.171 604.061 955.812 603.455 958.948 603.351C961.517 603.423 963.298 603.562 965.666 604.688C966.823 606.507 966.92 606.752 966.866 608.901C963.664 611.359 946.781 609.897 941.53 610.16C940.497 600.321 941.084 590.22 941.245 580.337L956.222 579.67Z"/>
	<path fill="#010000" d="M901.912 578.278C910.3 579.83 910.131 592.522 916.599 597.333L917.985 597.085C921.35 593.493 922.136 588.869 924.39 584.662C925.337 582.893 926.898 581.29 928.919 580.85C930.641 580.476 932.55 580.388 934.063 581.376C935.078 585.908 935.451 607.204 933.25 610.759C931.256 612.407 929.268 612.373 926.8 612.599C926.432 608.245 926.469 603.857 926.418 599.49C924.698 602.228 923.051 605.608 920.974 608.049C919.525 609.75 918.591 610.118 916.43 610.186C912.689 607.753 909.892 601.122 907.585 597.201C907.516 600.065 907.566 603.137 907.093 605.96C906.655 608.569 905.745 610.747 903.588 612.23C903.472 612.159 903.346 612.101 903.24 612.016C900.971 610.211 900.21 605.776 899.83 603.046C898.942 596.674 898.111 583.402 901.912 578.278Z"/>
	<path fill="#010000" d="M745.822 580.313C749.663 580.884 753.777 581.353 756.467 584.514C760.702 589.489 758.972 599.018 758.643 605.067C754.824 609.963 752.438 611.866 746.35 613.296C743.187 613.42 739.586 613.581 736.844 611.771C733.775 609.745 731.994 606.008 731.328 602.477C730.246 596.74 731.244 589.653 734.863 584.928C737.748 581.161 741.463 580.872 745.822 580.313Z"/>
	<path fill="#FEFEFE" d="M741.498 587.659C743.948 587.61 745.913 587.411 748.135 588.628C749.741 590.361 750.847 592.21 751.333 594.556C752.197 598.724 751.119 603.484 748.651 606.866C747.474 606.823 746.308 606.761 745.15 606.523C743.324 606.148 741.628 605.066 740.671 603.441C738.097 599.074 740.272 592.179 741.498 587.659Z"/>
	<path fill="#010000" d="M764.536 580.576C770.841 581.37 782.435 579.65 787.35 583.936C792.168 588.137 791.271 597.201 791.397 603.012L787.799 608.849C787.413 609.245 787.027 609.642 786.618 610.014C781.994 614.212 770.33 612.482 764.338 612.291L764.536 580.576Z"/>
	<path fill="#FEFEFE" d="M773.156 587.831C775.538 587.738 778.489 587.376 780.618 588.637C782.342 589.657 783.513 591.484 783.913 593.431C784.767 597.595 782.458 602.39 780.164 605.724C778.724 605.82 776.986 606.077 775.559 605.892C774.62 605.771 773.743 605.479 773.185 604.691C769.894 600.047 770.503 594.946 771.422 589.59C771.602 588.541 772.317 588.415 773.156 587.831Z"/>
</svg>
